<svg version="1.1" viewBox="0.0 0.0 960.0 250.0" fill="none" stroke="none" stroke-linecap="square" stroke-miterlimit="10" xmlns:xlink="http://www.w3.org/1999/xlink" xmlns="http://www.w3.org/2000/svg"><clipPath id="p.0"><path d="m0 0l960.0 0l0 250.0l-960.0 0l0 -250.0z" clip-rule="nonzero"/></clipPath><g clip-path="url(#p.0)"><path fill="#000000" fill-opacity="0.0" d="m0 0l960.0 0l0 250.0l-960.0 0z" fill-rule="evenodd"/><path fill="#000000" fill-opacity="0.0" d="m0 -0.004374541l960.0 0l0 250.01575l-960.0 0z" fill-rule="evenodd"/><path fill="#ffffff" d="m190.79987 135.59724q2.59375 0 4.0 2.609375q1.40625 2.59375 1.40625 6.59375q0 5.0 -1.40625 7.703125q-1.40625 2.703125 -4.40625 3.703125q-12.0 4.203125 -26.390625 4.796875q-4.0 16.59375 -15.109375 26.796875q-11.09375 10.203125 -24.5 10.203125q-20.1875 0 -29.390625 -15.390625q-9.203125 -15.40625 -9.203125 -44.609375q0 -25.796867 6.390625 -56.093742q6.40625 -30.312504 18.703125 -51.60938q12.3125 -21.296875 29.3125 -21.296875q9.1875 0 14.78125 7.906249q5.609375 7.890625 5.609375 20.5q0 16.390625 -6.203125 32.593754q-6.1875 16.203125 -20.59375 34.0q13.40625 1.0 21.796875 11.109375q8.40625 10.09375 10.0 24.890617q9.40625 -0.59375 22.40625 -4.0q1.203125 -0.40625 2.796875 -0.40625zm-55.203125 -106.796875q-4.0 0 -8.703125 11.90625q-4.6875 11.890625 -8.6875 32.29688q-4.0 20.40625 -6.0 44.59375q13.1875 -24.1875 21.09375 -42.6875q7.90625 -18.500004 7.90625 -32.906254q0 -6.40625 -1.5 -9.796875q-1.5 -3.40625 -4.109375 -3.40625zm-10.390625 148.0q6.1875 0 10.984375 -5.1875q4.8125 -5.203125 6.40625 -15.015625q-6.203125 -4.1875 -9.5 -10.984375q-3.296875 -6.8125 -3.296875 -14.40625q0 -2.796875 0.796875 -7.6093674l-0.59375 0q-8.203125 0 -13.703125 8.109367q-5.5 8.09375 -5.5 21.703125q0 11.390625 4.296875 17.390625q4.296875 6.0 10.109375 6.0zm79.99065 -86.20312q-8.390625 0 -12.59375 -3.890625q-4.203125 -3.90625 -4.203125 -10.90625q0 -7.0 5.5 -11.6875q5.5 -4.703129 13.703125 -4.703129q7.390625 0 11.984375 3.59375q4.609375 3.5937538 4.609375 10.203129q0 8.0 -5.203125 12.703125q-5.1875 4.6875 -13.796875 4.6875zm-1.59375 107.40624q-13.0 0 -18.90625 -9.203125q-5.890625 -9.203125 -5.890625 -24.390625q0 -9.0 2.296875 -23.09375q2.296875 -14.109367 5.890625 -26.312492q1.8125 -6.40625 4.8125 -8.796875q3.0 -2.40625 9.59375 -2.40625q10.203125 0 10.203125 6.796875q0 5.0 -3.796875 23.203117q-4.8125 22.0 -4.8125 29.796875q0 6.0 1.59375 9.203125q1.609375 3.203125 5.40625 3.203125q3.609375 0 9.0 -5.0q5.40625 -5.0 14.40625 -15.796875q2.40625 -2.796875 5.40625 -2.796875q2.59375 0 4.09375 2.40625q1.5 2.390625 1.5 6.59375q0 8.0 -3.796875 12.390625q-19.796875 24.203125 -37.0 24.203125zm38.793762 0q-7.59375 0 -10.703125 -8.0q-3.09375 -8.0 -3.09375 -25.59375q0 -26.0 7.40625 -49.406242q1.796875 -5.796875 5.890625 -8.5q4.109375 -2.703125 11.5 -2.703125q4.0000153 0 5.5937653 1.0q1.609375 1.0 1.609375 3.796875q0 3.203125 -3.0 14.40625q-2.0000153 7.9999924 -3.2031403 13.999992q-1.203125 6.0 -2.0 14.796875q6.6093903 -17.203125 14.79689 -27.999992q8.203125 -10.796875 16.09375 -15.390625q7.90625 -4.609375 14.515625 -4.609375q13.0 0 13.0 13.0q0 7.796875 -4.40625 28.203117q-3.796875 17.40625 -3.796875 23.0q0 8.0 5.796875 8.0q4.0 0 9.5 -4.890625q5.5 -4.90625 14.703125 -15.90625q2.40625 -2.796875 5.40625 -2.796875q2.59375 0 4.09375 2.40625q1.5 2.390625 1.5 6.59375q0 8.0 -3.796875 12.390625q-8.609375 10.609375 -18.515625 17.40625q-9.890625 6.796875 -22.484375 6.796875q-10.203125 0 -15.40625 -5.890625q-5.203125 -5.90625 -5.203125 -17.109375q0 -5.59375 2.8125 -20.0q2.59375 -12.59375 2.59375 -17.40625q0 -3.1875 -2.203125 -3.1875q-2.59375 0 -7.296875 6.703125q-4.703125 6.6875 -9.609375 17.6875q-4.890625 11.0 -7.890625 23.203125q-2.2031403 9.40625 -5.1093903 12.703125q-2.890625 3.296875 -9.09375 3.296875zm111.20003 -107.40624q-8.390625 0 -12.59375 -3.890625q-4.203125 -3.90625 -4.203125 -10.90625q0 -7.0 5.5 -11.6875q5.5 -4.703129 13.703125 -4.703129q7.390625 0 11.984375 3.59375q4.609375 3.5937538 4.609375 10.203129q0 8.0 -5.203125 12.703125q-5.1875 4.6875 -13.796875 4.6875zm-1.59375 107.40624q-13.0 0 -18.90625 -9.203125q-5.890625 -9.203125 -5.890625 -24.390625q0 -9.0 2.296875 -23.09375q2.296875 -14.109367 5.890625 -26.312492q1.8125 -6.40625 4.8125 -8.796875q3.0 -2.40625 9.59375 -2.40625q10.203125 0 10.203125 6.796875q0 5.0 -3.796875 23.203117q-4.8125 22.0 -4.8125 29.796875q0 6.0 1.59375 9.203125q1.609375 3.203125 5.40625 3.203125q3.609375 0 9.0 -5.0q5.40625 -5.0 14.40625 -15.796875q2.40625 -2.796875 5.40625 -2.796875q2.59375 0 4.09375 2.40625q1.5 2.390625 1.5 6.59375q0 8.0 -3.796875 12.390625q-19.796875 24.203125 -37.0 24.203125zm62.793762 0q-19.59375 0 -30.5 -11.09375q-10.890625 -11.109375 -10.890625 -29.3125q0 -16.1875 6.390625 -28.390625q6.40625 -12.203117 16.59375 -18.796867q10.203125 -6.609375 21.40625 -6.609375q11.0 0 17.09375 6.5q6.109375 6.5 6.109375 16.703125q0 8.406242 -3.703125 14.203117q-3.703125 5.796875 -9.703125 5.796875q-3.796875 0 -6.09375 -1.796875q-2.296875 -1.796875 -2.296875 -5.0q0 -1.40625 0.390625 -3.203125q0.40625 -1.796875 0.609375 -2.59375q1.0 -3.0 1.0 -5.609375q0 -2.5937424 -1.3125 -3.9843674q-1.296875 -1.40625 -3.6875 -1.40625q-4.609375 0 -8.609375 4.09375q-4.0 4.0937424 -6.40625 11.093742q-2.390625 7.0 -2.390625 15.40625q0 23.203125 20.203125 23.203125q8.203125 0 17.703125 -5.5q9.5 -5.5 18.703125 -16.5q2.390625 -2.796875 5.390625 -2.796875q2.609375 0 4.109375 2.40625q1.5 2.390625 1.5 6.59375q0 7.59375 -3.8125 12.390625q-9.390625 11.609375 -22.5 17.90625q-13.09375 6.296875 -25.296875 6.296875zm137.39691 -62.40625q2.609375 0 4.0 2.609375q1.40625 2.59375 1.40625 6.59375q0 9.609375 -5.796875 11.40625q-12.0 4.203125 -26.40625 4.796875q-3.796875 16.796875 -15.0 26.90625q-11.203125 10.09375 -25.390625 10.09375q-12.0 0 -20.5 -5.796875q-8.5 -5.796875 -12.90625 -15.390625q-4.40625 -9.609375 -4.40625 -20.8125q0 -15.203125 5.796875 -27.09375q5.8125 -11.906242 16.0 -18.609367q10.203125 -6.703125 22.609375 -6.703125q15.203125 0 24.5 10.5q9.296875 10.5 10.90625 25.906242q9.390625 -0.59375 22.390625 -4.0q1.609375 -0.40625 2.796875 -0.40625zm-65.59375 41.203125q6.40625 0 11.09375 -5.1875q4.703125 -5.203125 6.3125 -15.015625q-6.203125 -4.1875 -9.515625 -10.984375q-3.296875 -6.8125 -3.296875 -14.40625q0 -3.203125 0.609375 -6.4062424l-1.0 0q-8.0 0 -13.3125 7.7031174q-5.296875 7.703125 -5.296875 21.703125q0 11.0 4.296875 16.796875q4.3125 5.796875 10.109375 5.796875zm167.40314 -24.390625q2.59375 0 4.09375 2.40625q1.5 2.390625 1.5 6.59375q0 8.0 -3.796875 12.390625q-8.203125 10.0 -18.0 17.109375q-9.796875 7.09375 -19.40625 7.09375q-15.1875 0 -23.1875 -17.796875q-8.40625 10.59375 -14.703125 14.203125q-6.296875 3.59375 -14.703125 3.59375q-12.203125 0 -20.109375 -9.09375q-7.890625 -9.109375 -7.890625 -23.703125q0 -16.0 6.796875 -29.703125q6.796875 -13.703117 18.703125 -22.390617q11.90625 -8.703125 26.703125 -10.3125q3.796875 -38.796875 14.5 -66.296875q10.703125 -27.5 28.09375 -27.5q8.609375 0 14.296875 7.796874q5.703125 7.796875 5.703125 23.609375q0 22.390625 -11.0 52.39063q-11.0 30.0 -29.390625 61.609367q0.796875 11.59375 3.484375 16.59375q2.703125 5.0 6.90625 5.0q5.40625 0 11.0 -4.796875q5.609375 -4.796875 15.0 -16.0q2.40625 -2.796875 5.40625 -2.796875zm-23.609375 -123.8125q-3.796875 0 -7.59375 13.5q-3.796875 13.5 -6.5 35.312504q-2.703125 21.796875 -3.90625 45.59375q22.40625 -48.796875 22.40625 -78.40625q0 -7.59375 -1.296875 -11.796875q-1.296875 -4.203125 -3.109375 -4.203125zm-57.59375 149.20312q3.796875 0 7.59375 -3.09375q3.8125 -3.109375 9.609375 -11.5q-2.0 -10.796875 -2.0 -24.203125q0 -4.796875 0.390625 -15.593742q-11.0 3.390625 -18.296875 14.703117q-7.296875 11.296875 -7.296875 25.09375q0 14.59375 10.0 14.59375zm159.79688 -25.390625q2.609375 0 4.109375 2.40625q1.5 2.390625 1.5 6.59375q0 8.0 -3.8125 12.390625q-7.390625 9.0 -20.890625 16.609375q-13.5 7.59375 -28.90625 7.59375q-21.0 0 -32.609375 -11.390625q-11.59375 -11.40625 -11.59375 -31.203125q0 -13.8125 5.796875 -25.703125q5.8125 -11.906242 16.109375 -18.906242q10.296875 -7.0 23.296875 -7.0q11.609375 0 18.609375 6.90625q7.0 6.890625 7.0 18.703117q0 13.796875 -9.90625 23.703125q-9.90625 9.890625 -33.5 15.6875q5.0 9.203125 19.0 9.203125q9.0 0 20.5 -6.296875q11.5 -6.296875 19.90625 -16.5q2.390625 -2.796875 5.390625 -2.796875zm-50.390625 -28.999992q-7.40625 0 -12.515625 8.593742q-5.09375 8.59375 -5.09375 20.796875l0 0.40625q11.796875 -2.796875 18.59375 -8.390625q6.8125 -5.609375 6.8125 -13.015625q0 -3.796875 -2.109375 -6.0937424q-2.09375 -2.296875 -5.6875 -2.296875zm120.60004 7.7968674q4.390625 0 7.484375 3.109375q3.109375 3.09375 3.109375 7.6875q0 2.59375 -1.203125 5.59375q-3.203125 7.40625 -9.0 12.40625q-5.796875 5.0 -12.796875 5.0q-5.59375 0 -9.5 -4.0q-3.90625 -4.0 -3.90625 -10.796875q0 -3.796875 0.40625 -8.203125q0.40625 -3.203125 0.40625 -4.40625q0 -1.59375 -0.703125 -2.390625q-0.703125 -0.796875 -1.703125 -0.796875q-2.796875 0 -7.609375 6.703125q-4.796875 6.6875 -9.59375 17.6875q-4.796875 11.0 -7.796875 23.203125q-2.203125 9.59375 -5.0 12.796875q-2.796875 3.203125 -9.203125 3.203125q-7.59375 0 -10.703125 -8.0q-3.09375 -8.0 -3.09375 -25.59375q0 -26.0 7.40625 -49.406242q1.796875 -5.796875 5.890625 -8.5q4.109375 -2.703125 11.5 -2.703125q4.0 0 5.59375 1.0q1.609375 1.0 1.609375 3.796875q0 3.203125 -3.0 14.40625q-2.0 7.9999924 -3.203125 13.999992q-1.203125 6.0 -2.0 14.796875q6.609375 -17.203125 14.796875 -27.999992q8.203125 -10.796875 16.0 -15.390625q7.8125 -4.609375 14.203125 -4.609375q5.796875 0 8.890625 3.3125q3.109375 3.296875 3.109375 9.6875q0 3.796875 -2.203125 14.406242l1.8125 0zm50.390686 71.203125q-10.390625 0 -15.890625 -4.8125q-5.5 -4.796875 -5.5 -10.796875q0 -5.203125 3.796875 -9.0q3.796875 -3.796875 11.203125 -3.796875q2.59375 0 6.09375 0.5q3.5 0.5 5.296875 0.703125q-0.203125 -5.203125 -2.296875 -9.796875q-2.09375 -4.609375 -5.296875 -8.90625q-3.203125 -4.296875 -6.0 -7.5q-6.203125 11.796875 -12.3125 19.609375q-6.09375 7.796875 -13.296875 14.796875q-3.59375 3.59375 -7.59375 3.59375q-3.203125 0 -5.203125 -2.296875q-2.0 -2.296875 -2.0 -5.703125q0 -4.0 2.796875 -7.40625l2.609375 -3.1875q11.0 -13.609375 16.59375 -22.40625q3.609375 -5.796875 7.296875 -13.796875q3.703125 -7.9999924 9.703125 -21.796867q3.796875 -8.8125 15.796875 -8.8125q5.609375 0 7.796875 1.0q2.203125 1.0 2.203125 3.203125q0 1.203125 -0.796875 3.8125q-0.796875 2.59375 -2.203125 5.1875q-3.59375 7.203125 -3.59375 12.203125q0 2.9999924 2.09375 6.6093674q2.109375 3.59375 6.5 8.984375q6.40625 8.40625 9.703125 14.3125q3.296875 5.890625 3.296875 12.890625q0 8.40625 -3.90625 15.90625q-3.890625 7.5 -10.890625 12.09375q-7.0 4.609375 -16.0 4.609375z" fill-rule="nonzero"/></g></svg>